<svg width="2626" height="959" viewBox="0 0 2626 959" fill="none" xmlns="http://www.w3.org/2000/svg">
<path d="M881.934 267.939C928.111 267.939 967.785 278.671 1000.96 300.134C1034.45 321.271 1060.14 351.027 1078.03 389.4C1095.91 427.773 1104.86 472.325 1104.86 523.056V554.274H808V487.935H1018.8C1016.52 461.219 1010.89 438.292 1001.93 419.155C990.224 393.465 973.964 374.441 953.151 362.084C932.339 349.401 908.437 343.06 881.446 343.06C854.455 343.06 830.228 349.727 808.765 363.06C787.302 376.067 770.392 395.579 758.034 421.595C748.958 440.463 743.215 462.576 740.805 487.935H740.986L740.011 554.274H739.536C740.062 587.954 746.065 616.897 757.547 641.102C769.904 666.467 787.302 685.979 809.74 699.637C832.179 712.97 858.683 719.636 889.251 719.636C910.714 719.636 929.901 716.384 946.811 709.88C963.72 703.376 977.866 694.433 989.248 683.052C1000.63 671.67 1008.76 658.662 1013.64 644.028L1015.1 639.638H1098.51L1097.54 644.516C1093.31 665.328 1085.18 684.84 1073.15 703.051C1061.44 721.262 1046.32 737.359 1027.78 751.343C1009.25 765.001 988.11 775.732 964.371 783.537C940.632 791.017 914.941 794.756 887.3 794.756C838.846 794.756 797.058 784.024 761.937 762.562C727.141 741.099 700.312 710.855 681.451 671.832C662.915 632.483 653.646 586.306 653.646 533.299V532.812C653.646 480.455 663.077 434.439 681.938 394.766C700.8 354.767 727.304 323.711 761.449 301.598C795.595 279.159 835.756 267.939 881.934 267.939ZM1399.97 267.939C1442.25 267.939 1478.5 276.232 1508.75 292.817C1538.99 309.077 1562.73 330.215 1579.97 356.23C1597.53 382.246 1608.09 409.725 1611.67 438.667L1611.96 441H1613L1612 441.335L1612.16 442.569H1612.03L1613 487H1533.5L1529.1 442.031L1528.26 438.667C1522.08 413.302 1508.42 391.026 1487.29 371.84C1466.47 352.653 1437.37 343.06 1399.97 343.06C1370.7 343.06 1345.01 350.864 1322.9 366.474C1300.79 381.758 1283.55 403.546 1271.19 431.838C1258.83 459.805 1252.66 492.975 1252.66 531.348V531.836C1252.66 571.184 1258.84 604.842 1271.19 632.809C1283.88 660.775 1301.27 682.238 1323.39 697.197C1345.83 712.156 1371.68 719.636 1400.95 719.636C1435.74 719.636 1463.87 710.855 1485.33 693.295C1507.12 675.409 1521.59 652.32 1528.75 624.028L1529.25 622H1529L1533.5 582H1613V620.126H1613.14L1613 621.075V622H1612.87L1612.65 623.541C1608.09 655.735 1596.23 684.84 1577.04 710.855C1558.18 736.546 1533.62 757.033 1503.38 772.317C1473.46 787.276 1439.32 794.756 1400.95 794.756C1353.14 794.756 1311.52 784.024 1276.07 762.562C1240.95 740.773 1213.8 710.205 1194.61 670.856C1175.42 631.183 1165.83 584.517 1165.83 530.86V530.372C1165.83 477.04 1175.59 430.7 1195.1 391.352C1214.61 352.003 1241.92 321.597 1277.05 300.134C1312.17 278.671 1353.14 267.939 1399.97 267.939ZM1804.84 277.695H1901.42V347.938H1804.84V655.247C1804.84 682.238 1810.69 700.612 1822.4 710.368C1834.11 719.799 1851.34 724.514 1874.1 724.514C1879.31 724.514 1884.19 724.352 1888.74 724.026C1893.62 723.376 1897.84 722.888 1901.42 722.562V791.342C1896.22 791.992 1889.39 792.643 1880.93 793.293C1872.8 794.269 1864.51 794.756 1856.06 794.756C1809.55 794.756 1774.76 783.699 1751.67 761.586C1728.58 739.473 1717.04 704.189 1717.04 655.735V347.938H1642.89V277.695H1717.04V140.625H1804.84V277.695ZM2181.41 267.939C2221.41 267.939 2255.88 274.769 2284.83 288.427C2314.09 302.085 2336.7 321.435 2352.63 346.475C2368.56 371.189 2376.53 400.457 2376.53 434.277V785H2291.66V702.563H2289.7C2279.95 721.099 2266.94 737.359 2250.68 751.343C2234.42 765.001 2216.05 775.732 2195.56 783.537C2175.4 791.017 2153.94 794.756 2131.17 794.756C2097.68 794.756 2068.25 788.415 2042.88 775.732C2017.52 763.05 1997.68 745.164 1983.37 722.075C1969.39 698.986 1962.4 672.157 1962.4 641.589V640.613C1962.4 611.671 1969.55 586.631 1983.86 565.493C1998.49 544.356 2019.47 527.608 2046.78 515.251C2074.42 502.894 2107.59 495.576 2146.29 493.3L2224 488.859V555.057L2156.05 559.152C2122.23 561.104 2095.89 569.233 2077.03 583.542C2058.49 597.851 2049.22 616.874 2049.22 640.613V641.589C2049.22 665.979 2058.33 685.328 2076.54 699.637C2095.08 713.945 2119.63 721.1 2150.2 721.1C2176.86 721.1 2200.76 715.571 2221.9 704.515C2243.36 693.133 2260.27 677.685 2272.63 658.174C2285.31 638.662 2291.66 616.712 2291.66 592.322V583H2292V449H2291.66V442.569C2291.66 411.676 2281.9 387.449 2262.39 369.889C2243.2 352.003 2215.88 343.06 2180.44 343.06C2147.92 343.06 2121.58 350.214 2101.42 364.522C2081.58 378.506 2069.22 396.88 2064.34 419.644L2063.37 424.033H1981.42L1981.91 418.668C1984.51 390.701 1993.94 365.336 2010.2 342.572C2026.78 319.809 2049.55 301.76 2078.49 288.427C2107.43 274.769 2141.74 267.939 2181.41 267.939ZM400.482 694.759H401.405L432.22 785H358.044L171.219 277.695H260.485L400.482 694.759ZM499.967 635H422.562L542.918 277.695H631.208L499.967 635ZM1718 347H1804V279H1718V347Z" fill="black"/>
</svg>
